<svg xmlns="http://www.w3.org/2000/svg" width="120" height="85" viewBox="0 0 120 85">
    <g fill="none" fill-rule="evenodd">
        <g>
            <g>
                <g fill="#272727">
                    <path d="M8 4L111 4 111 0 8 0zM9.983 20.248H7.175v-7.834c-.932-.122-1.759-.094-2.684-.011 0 1.962-.029 3.886.014 5.81.018.81-.351 1.346-.932 1.806-.186.148-.388.263-.643.26-.943-.005-1.886-.002-2.86-.002-.132-1.043-.032-2.014-.06-2.967.507-.24.996-.008 1.48-.186v-4.659c-.293-.287-.714 0-1.091-.225V9.25h3.12c1.39 0 2.78-.02 4.17.006 1.145.022 2.385 1.218 2.393 2.341.021 2.813.004 5.627-.002 8.44 0 .06-.053.118-.097.21M102.79 20.248h-2.894c-.194-.588-.078-1.195-.088-1.787-.02-1.118.035-2.239-.019-3.354-.042-.9.126-1.673.84-2.276.118-.1.28-.206.196-.48H99.54V9.305c1.1-.125 2.208-.035 3.313-.05 1.22-.018 2.44-.017 3.66-.001 1.256.016 2.506 1.198 2.517 2.44.025 2.81.007 5.618.007 8.506-.99.153-1.943.087-2.964.037v-7.825h-3.283v7.835zM60.693 26.021v6.387l1.43-.077v-3.812c-.032-.12-.472.082-.563-.177v-2.305h2.928c0 1.718.001 3.404-.001 5.09-.001.54-.605.684-.792 1.172.76.11 1.48.07 2.249.033v-3.72c-.115-.264-.41-.139-.626-.23v-2.325h3.052c0 2.227.032 4.427-.015 6.623-.02.952-1.394 2.184-2.348 2.194-1.833.019-3.666.019-5.499 0-1.13-.011-2.165-1.077-2.18-2.229-.017-1.322-.004-2.644-.004-3.9-.155-.312-.49-.175-.62-.388v-2.336h2.989zM40.62 17.569c.476.022.775.038 1.134.056.134.862.08 1.715.034 2.613h-4.482c0-.918-.016-1.825.007-2.729.01-.426.269-.748.556-1.052.742-.79 1.44-1.622 2.21-2.382.484-.477.678-.98.498-1.707H35.4V7.023h2.888V9.25h5.312c-.032 1.566.047 3.048-.06 4.534-.045.623-.363 1.078-.76 1.504-.67.715-1.346 1.422-2.16 2.282M21.897 12.344h-5.19v-5.33c.957-.059 1.888-.062 2.899.006v2.216h5.297c0 1.565.028 3.046-.015 4.525-.017.585-.345 1.077-.765 1.504-.687.7-1.345 1.426-2.064 2.19.327.263.684.073 1.02.196.079.841.055 1.706.018 2.591h-4.452c0-.943-.004-1.849.001-2.753.002-.404.247-.691.5-.967.778-.849 1.527-1.728 2.348-2.532.474-.464.619-.934.403-1.646M90.058 20.234V17.23h4.594v-4.867h-4.351V9.255c1.751 0 3.475-.033 5.197.013 1.033.027 2.178 1.264 2.196 2.299.022 1.287-.04 2.576.022 3.86.039.805-.724 1.083-.983 1.744h1.463c.225.514.085 1.024.11 1.516.024.5.005 1 .005 1.547h-8.253zM26.42 20.283v-3.07h4.621v-4.857h-4.609V9.273c1.875 0 3.762-.06 5.642.025.92.043 2.002 1.445 2.01 2.4.017 2.035.017 4.07 0 6.105-.01 1.237-1.236 2.46-2.478 2.475-1.695.02-3.39.005-5.186.005M45.105 20.283v-3.055h4.604v-4.823h-4.54c-.167-1.06-.035-2.032-.088-2.968.19-.277.448-.18.67-.181 1.459-.009 2.917-.012 4.374-.003 1.452.01 2.56 1.115 2.564 2.547.005 2 .006 4-.001 6.002-.005 1.29-1.144 2.462-2.43 2.477-1.688.018-3.377.004-5.153.004M79.336 20.234H76.34V12.38h-5.92V9.25h5.955c1.865.002 2.96 1.077 2.961 2.911v8.072M110.913 12.37V9.263c2.28 0 4.544-.042 6.806.02.916.025 2.092 1.384 2.102 2.339.03 2.844.01 5.688.01 8.596h-2.962v-7.85h-5.956zM63.416 20.244h-3.023v-7.866h-5.83V9.264c2.245 0 4.506-.04 6.764.02.873.022 2.069 1.351 2.078 2.238.03 2.876.011 5.752.011 8.722M72.463 30.543v1.7c.153.235.525.017.7.301v2.247c-.954.193-1.888.03-2.943.103 0-1.277-.018-2.483.009-3.688.01-.428.317-.736.621-1.013.3-.272.608-.534.95-.835l-1.752-2.294c.515-.59 1.187-.975 1.841-1.491l3.36 4.469c.314-.53.116-.993.176-1.373-.173-.368-.531-.14-.768-.357V26h2.947c-.11 1.791.626 3.784-1.6 4.957l2.176 2.86-1.88 1.43-3.674-4.793-.163.09M35.203 26.02h3.12v5.847c.773-.17 1.142-.716 1.647-1.077V28.7c-.191-.31-.558-.086-.74-.356V26.03h2.982c.245.197.155.486.157.742.009 1.187-.013 2.373.009 3.559.018 1.022-.33 1.845-1.16 2.46-1.632 1.207-3.257 2.42-4.912 3.651-.574-.544-.926-1.2-1.41-1.817.66-.748 1.593-1.135 2.302-1.843-.297-.709-1.185-1.055-1.232-1.898-.04-.742-.008-1.488-.008-2.176-.203-.32-.575-.105-.755-.386V26.02zM88.497 20.248h-2.91v-7.866h-4.772v-3.13h3.586c.61 0 1.22-.026 1.829.006.921.047 2.234 1.16 2.249 2.044.047 2.97.018 5.942.018 8.946M91.359 32.52c.233.28.553.035.778.26v2.041H88.57c-.201-1.495-.207-2.892 1.18-3.913.376-.276.653-.686.971-1.037.47-.519.468-.52.386-1.45H86.95v-4.255h2.294c.18.527-.007 1.106.115 1.737h4.201c0 1.314.022 2.553-.013 3.791-.01.405-.259.752-.553 1.056-.556.579-1.091 1.179-1.635 1.77M51.36 34.84h-2.253v-6.308h-4.753V26.07c.67-.183 1.377-.066 2.074-.082.948-.02 1.898-.009 2.846-.004 1.318.009 2.192.886 2.193 2.212.001 2.134-.006 4.27-.015 6.403 0 .06-.045.12-.092.24M25.918 28.352v-2.313h3.053V35.7c.288.42.64.228.87.483v1.884c-.495.13-.968.065-1.433.065-1.146-.001-1.81-.656-1.817-1.824-.015-2.542-.005-5.085-.005-7.563-.134-.347-.47-.167-.668-.394M85.41 34.828h-2.364v-6.343h-3.814c-.197-.84-.042-1.608-.122-2.512 1.574 0 3.086-.044 4.594.02.76.03 1.681 1.028 1.693 1.799.037 2.328.014 4.657.014 7.036M15.236 9.3v6.672h-2.863v-3.376c-.273-.371-.6-.175-.853-.334V9.301h3.716z" transform="translate(-1519 -52) translate(1519 52) translate(0 46)"/>
                    <path d="M57.507 20.242h-2.98c0-1.417-.004-2.796.003-4.174.001-.129.048-.265.097-.387.345-.856 1.875-1.76 2.88-1.683v6.244zM113.92 13.994v6.24c-.964.09-1.922.062-2.982.006 0-1.418-.003-2.798.004-4.176.001-.131.038-.268.087-.39.326-.817 1.917-1.752 2.892-1.68M70.48 20.237c0-1.436-.003-2.854.008-4.272 0-.16.046-.371.152-.473.766-.736 1.447-1.637 2.758-1.563v6.308h-2.917zM30.46 26.013h2.989v5.393H31.17c-.162-.877-.007-1.787-.09-2.683-.082-.31-.42-.154-.62-.363v-2.347zM44.338 34.907v-2.766c.004-1.308.936-2.28 2.372-2.405v5.067c-.699.172-1.434.023-2.372.104" transform="translate(-1519 -52) translate(1519 52) translate(0 46)"/>
                </g>
                <g>
                    <path fill="#157FC3" d="M16.694 43.44h5.431v.76h-5.374c-.163-.237-.072-.503-.057-.76" transform="translate(-1519 -52) translate(1519 52) translate(14)"/>
                    <path fill="#8EC740" d="M16.686 30.909L11.469 25.679 11.463 25.685 11.457 25.679 0.937 36.216 0.937 44.267 6.514 44.267 6.514 38.527 11.463 33.575 16.686 38.8z" transform="translate(-1519 -52) translate(1519 52) translate(14)"/>
                    <path fill="#21A9E0" d="M30.013 27.423L16.686 27.423 16.686 44.267 22.262 44.267 22.262 33.003 30.013 33.003z" transform="translate(-1519 -52) translate(1519 52) translate(14)"/>
                    <path fill="#765EA9" d="M36.572 4.604L42.254 4.604 42.254.367 36.572.367zM30.013 6.499L30.013 44.267 35.59 44.267 35.59 12.078 43.236 12.078 43.236 31.634 48.812 31.634 48.812 6.499z" transform="translate(-1519 -52) translate(1519 52) translate(14)"/>
                    <path fill="#F283B5" d="M43.236 31.634L43.236 44.267 48.812 44.267 48.812 37.214 56.458 37.214 56.458 31.634z" transform="translate(-1519 -52) translate(1519 52) translate(14)"/>
                    <path fill="#FCC20F" d="M75.223 17.471L56.459 17.471 56.424 17.471 56.459 44.267 62.035 44.267 62.035 23.05 69.646 23.05 69.646 36.742 75.223 31.163z" transform="translate(-1519 -52) translate(1519 52) translate(14)"/>
                    <path fill="#F26359" d="M91.123 36.114L91.112 36.103 91.112 36.056 91.064 36.056 80.704 25.678 80.698 25.684 80.692 25.678 69.647 36.743 69.647 44.267 75.223 44.267 75.223 39.054 80.698 33.576 85.534 38.415 85.534 44.267 91.112 44.267 91.112 36.126zM89.896 27.423L85.662 27.423 85.662 29.555 89.896 33.791z" transform="translate(-1519 -52) translate(1519 52) translate(14)"/>
                </g>
            </g>
        </g>
    </g>
</svg>
