<svg width="1200" height="675" viewBox="0 0 1200 675" xmlns="http://www.w3.org/2000/svg">
  <defs>
    <linearGradient id="bg" x1="0" y1="0" x2="1" y2="1">
      <stop offset="0%" stop-color="#0b1220"/>
      <stop offset="55%" stop-color="#12233b"/>
      <stop offset="100%" stop-color="#17385c"/>
    </linearGradient>
    <radialGradient id="glow" cx="50%" cy="35%" r="65%">
      <stop offset="0%" stop-color="#0084e0" stop-opacity="0.35"/>
      <stop offset="100%" stop-color="#0084e0" stop-opacity="0"/>
    </radialGradient>
    <pattern id="grid" width="40" height="40" patternUnits="userSpaceOnUse">
      <path d="M40 0H0V40" fill="none" stroke="#ffffff" stroke-opacity="0.06" stroke-width="1"/>
    </pattern>
  </defs>

  <rect width="1200" height="675" fill="url(#bg)"/>
  <rect width="1200" height="675" fill="url(#grid)"/>
  <rect width="1200" height="675" fill="url(#glow)"/>

  <!-- scattered map nodes -->
  <g fill="#0084e0" opacity="0.55">
    <circle cx="150" cy="120" r="3.5"/>
    <circle cx="230" cy="500" r="3"/>
    <circle cx="980" cy="140" r="3"/>
    <circle cx="1060" cy="460" r="3.5"/>
    <circle cx="120" cy="330" r="2.5"/>
    <circle cx="1090" cy="290" r="2.5"/>
    <circle cx="340" cy="90" r="2.5"/>
    <circle cx="880" cy="580" r="3"/>
  </g>
  <g stroke="#0084e0" stroke-opacity="0.25" stroke-width="1.5">
    <line x1="150" y1="120" x2="340" y2="90"/>
    <line x1="980" y1="140" x2="1090" y2="290"/>
    <line x1="230" y1="500" x2="120" y2="330"/>
    <line x1="1060" y1="460" x2="880" y2="580"/>
  </g>

  <!-- brand mark -->
  <g transform="translate(535, 210) scale(1.55)">
    <path d="M59.87,53.213c-0.878,-0.11 -1.929,-0.22 -3.187,-0.312c-9.607,-0.705 -18.807,0.8 -30.332,6.466c-5.532,-2.294 -10.717,-4.38 -15.26,-6.942c-7.278,-4.103 -8.838,-7.437 -9.538,-9.179c-0.184,-0.457 -0.355,-0.92 -0.514,-1.385c-0.666,-3.12 -1.039,-6.291 -1.039,-9.483c0,-17.87 14.508,-32.378 32.378,-32.378c17.87,0 32.378,14.508 32.378,32.378c0,7.092 -1.946,14.175 -4.886,20.835Zm-37.832,-26.709c-1.498,-1.188 -3.392,-1.898 -5.45,-1.898c-4.846,0 -8.78,3.934 -8.78,8.78c0,4.846 3.934,8.78 8.78,8.78l37.741,0c0.089,0 0.175,-0.035 0.24,-0.097c1.466,-1.41 2.378,-3.39 2.378,-5.582c0,-1.159 -0.255,-2.259 -0.712,-3.246c-1.229,-2.655 -3.917,-4.499 -7.034,-4.499c-0.95,0 -1.861,0.172 -2.702,0.485c0.129,-0.716 0.197,-1.453 0.197,-2.206c0,-6.807 -5.527,-12.334 -12.334,-12.334c-6.634,0 -12.053,5.249 -12.324,11.818Z" fill="#0084e0"/>
    <path d="M48.884,71.701c-0.992,-0.891 -1.881,-1.582 -2.533,-2.068c-4.816,-3.589 -10.971,-6.379 -13.657,-7.568c-0.906,-0.401 -1.807,-0.791 -2.7,-1.171c0.34,-0.111 0.703,-0.227 1.087,-0.347c10.06,-3.141 17.156,-2.997 22.903,-2.34c1.094,0.125 2.203,0.29 3.223,0.458c-1.251,2.341 -2.601,4.609 -4.001,6.786c-1.404,2.183 -2.86,4.273 -4.322,6.25Z" fill="#5fb2ec"/>
    <path d="M7.134,58.239c6.636,2.988 15.276,5.231 21.505,7.257c7.313,2.378 11.724,4.287 15.469,6.632c1.083,0.678 2.047,1.358 2.908,2.038c-6.558,8.441 -12.836,14.422 -14.644,16.091c-2.392,-2.151 -12.515,-11.593 -20.822,-24.455c-1.556,-2.409 -3.049,-4.939 -4.415,-7.563Z" fill="#ffffff"/>
  </g>

  <!-- wordmark -->
  <text x="600" y="430" text-anchor="middle" font-family="Arial, Helvetica, sans-serif" font-size="64" font-weight="800" letter-spacing="1">
    <tspan fill="#ffffff">Urban</tspan><tspan fill="#0084e0">IQ</tspan>
  </text>

  <!-- tagline -->
  <text x="600" y="480" text-anchor="middle" font-family="Arial, Helvetica, sans-serif" font-size="22" font-weight="500" fill="#a9c3de" letter-spacing="0.5">
    Smart Resident Registry Platform
  </text>
</svg>
